{"glyphs":{"0":{"ha":614,"x_min":29,"x_max":585,"o":"m 110 872 q 151 947 110 872 q 307 1022 192 1022 q 503 872 422 1022 q 585 511 585 722 q 503 150 585 300 q 307 0 422 0 q 110 150 192 0 q 29 511 29 300 q 110 872 29 722 m 236 199 q 251 137 236 199 q 307 75 265 75 q 378 199 349 75 q 407 511 407 322 q 378 824 407 700 q 307 949 349 949 q 236 824 265 949 q 207 511 207 700 q 236 199 207 322 z "},"1":{"ha":408,"x_min":28,"x_max":381,"o":"m 132 -104 q 169 75 169 -39 l 169 929 q 131 835 146 886 q 113 756 115 785 l 110 726 l 28 790 q 96 935 71 857 q 125 1058 121 1014 l 129 1103 l 378 1103 q 340 924 340 1036 l 340 65 q 351 -17 340 25 q 371 -82 361 -60 l 381 -104 l 132 -104 z "},"2":{"ha":572,"x_min":28,"x_max":544,"o":"m 544 186 q 521 -69 483 43 q 455 -58 497 -64 q 284 -50 413 -51 q 28 -69 156 -49 q 63 61 28 -10 q 146 206 97 132 q 244 364 194 279 q 328 564 293 449 q 363 804 363 679 q 345 926 363 864 q 297 988 328 988 q 243 919 261 988 q 251 804 225 851 l 86 754 q 84 771 85 760 q 85 813 83 782 q 91 872 86 843 q 111 934 96 900 q 149 993 126 968 q 212 1035 172 1018 q 304 1051 251 1051 q 475 982 417 1051 q 533 785 533 913 q 488 540 533 672 q 388 315 442 408 q 279 135 333 222 q 218 28 225 49 q 413 28 300 58 q 500 186 438 143 l 544 186 z "},"3":{"ha":547,"x_min":28,"x_max":525,"o":"m 331 533 q 449 466 403 515 q 510 356 494 417 q 515 226 525 294 q 472 102 504 158 q 381 10 439 46 q 250 -26 322 -26 q 142 -3 188 -26 q 74 62 97 21 q 39 147 50 103 q 28 243 28 192 l 169 243 q 163 195 164 226 q 165 126 161 164 q 191 62 169 89 q 250 35 213 35 q 351 147 318 35 q 337 371 383 258 q 167 483 290 483 l 167 557 q 301 665 258 557 q 328 879 344 772 q 261 986 313 986 q 218 942 235 986 q 203 853 201 899 q 217 779 204 807 l 50 728 q 48 746 49 735 q 49 790 47 757 q 55 853 50 824 q 74 919 60 883 q 112 982 89 956 q 175 1026 135 1008 q 268 1044 215 1044 q 429 977 372 1044 q 487 823 486 910 q 446 651 488 736 q 331 533 404 567 z "},"4":{"ha":639,"x_min":28,"x_max":611,"o":"m 611 397 q 535 413 582 404 l 535 171 q 545 88 535 131 q 565 22 556 46 l 575 0 l 328 0 q 365 179 365 65 l 365 429 q 28 397 193 436 l 28 476 l 365 1006 q 453 1005 415 996 q 513 1031 490 1014 l 535 1049 l 535 490 l 611 476 q 611 397 586 435 m 121 492 q 365 506 239 508 l 365 872 l 121 492 z "},"5":{"ha":594,"x_min":29,"x_max":571,"o":"m 301 710 q 470 635 401 710 q 555 454 539 561 q 554 241 571 347 q 464 60 538 135 q 282 -14 390 -14 q 167 14 215 -14 q 99 81 119 42 q 69 159 79 119 q 58 226 58 199 l 60 254 l 200 254 q 197 232 199 246 q 194 182 194 218 q 201 118 194 146 q 228 68 207 90 q 282 46 249 46 q 361 108 331 46 q 397 257 392 169 q 392 433 401 344 q 349 583 382 521 q 272 644 317 644 q 232 633 250 644 q 206 608 214 621 l 199 597 l 29 597 l 29 1022 q 60 1015 40 1019 q 139 1003 79 1011 q 257 992 199 996 q 394 994 315 989 q 539 1015 472 999 l 539 865 l 501 851 l 451 939 q 199 940 314 921 l 199 690 q 301 710 246 710 z "},"6":{"ha":594,"x_min":22,"x_max":568,"o":"m 338 575 q 499 509 439 575 q 563 348 558 443 q 544 158 568 253 q 456 -2 521 64 q 308 -68 390 -68 q 128 49 201 -68 q 38 331 54 165 q 42 664 22 497 q 144 947 63 831 q 346 1064 226 1064 q 430 1036 397 1064 q 474 969 463 1008 q 488 891 485 931 q 489 824 492 851 l 485 796 q 429 810 460 810 q 381 803 399 810 l 363 796 q 331 997 383 997 q 233 861 267 997 q 197 528 199 725 q 338 575 261 575 m 307 15 q 373 65 346 15 q 407 186 400 115 q 409 328 414 257 q 379 450 404 400 q 317 500 354 500 q 199 421 254 500 q 235 133 206 250 q 307 15 264 15 z "},"7":{"ha":567,"x_min":28,"x_max":539,"o":"m 319 56 q 311 -6 310 19 q 319 -46 313 -32 l 325 -60 l 58 -60 q 129 44 99 -28 l 357 1010 q 244 1003 299 1003 q 153 1008 190 1004 l 115 1011 l 65 922 l 28 936 l 28 1088 q 267 1064 153 1063 q 460 1081 381 1065 l 539 1094 l 317 56 l 319 56 z "},"8":{"ha":614,"x_min":29,"x_max":585,"o":"m 408 640 q 535 492 486 596 q 585 261 585 389 q 503 -27 585 92 q 307 -146 422 -146 q 110 -27 192 -146 q 29 261 29 92 q 78 492 29 389 q 206 640 128 596 q 119 744 151 676 q 86 894 86 813 q 151 1097 86 1014 q 307 1181 215 1181 q 463 1097 399 1181 q 528 894 528 1014 q 495 744 528 813 q 408 640 463 676 m 363 1058 q 352 1088 363 1058 q 307 1118 340 1118 q 251 1058 274 1118 q 228 894 228 999 q 251 731 228 790 q 307 671 274 671 q 363 731 340 671 q 386 894 386 790 q 363 1058 386 999 m 236 13 q 251 -37 236 13 q 307 -86 265 -86 q 378 13 349 -86 q 407 261 407 111 q 378 510 407 411 q 307 608 349 608 q 236 510 265 608 q 207 261 207 411 q 236 13 207 111 z "},"9":{"ha":594,"x_min":26,"x_max":572,"o":"m 286 1064 q 467 947 393 1064 q 556 665 540 831 q 552 332 572 499 q 450 49 532 165 q 249 -68 368 -68 q 165 -40 197 -68 q 121 27 132 -12 q 106 106 110 67 q 106 172 103 144 l 110 200 q 165 186 135 186 q 214 193 196 186 l 232 200 q 264 21 211 21 q 361 150 328 21 q 397 468 394 279 q 257 421 338 421 q 96 487 156 421 q 31 647 36 553 q 50 837 26 742 q 139 998 74 932 q 286 1064 204 1064 m 278 494 q 396 576 343 494 q 361 863 390 744 q 288 981 332 981 q 222 931 249 981 q 188 809 194 881 q 185 666 181 738 q 215 544 190 594 q 278 494 240 494 z "},"¯":{"ha":347,"x_min":0,"x_max":0,"o":""},"±":{"ha":347,"x_min":0,"x_max":0,"o":""},"―":{"ha":347,"x_min":0,"x_max":0,"o":""},"‖":{"ha":347,"x_min":0,"x_max":0,"o":""},"‗":{"ha":347,"x_min":0,"x_max":0,"o":""},"‛":{"ha":347,"x_min":0,"x_max":0,"o":""},"‟":{"ha":347,"x_min":0,"x_max":0,"o":""},"‡":{"ha":347,"x_min":0,"x_max":0,"o":""},"‣":{"ha":347,"x_min":0,"x_max":0,"o":""},"․":{"ha":347,"x_min":0,"x_max":0,"o":""},"‥":{"ha":347,"x_min":0,"x_max":0,"o":""},"\u0000":{"ha":0,"x_min":0,"x_max":0,"o":""},"\r":{"ha":347,"x_min":0,"x_max":0,"o":""}," ":{"ha":347,"x_min":0,"x_max":0,"o":""},"!":{"ha":306,"x_min":29,"x_max":276,"o":"m 69 228 l 69 853 q 60 935 69 893 q 39 1000 50 978 l 29 1022 l 276 1022 q 239 843 239 957 l 239 228 l 69 228 m 87 120 q 100 134 87 120 q 153 147 114 147 q 219 120 192 147 q 246 54 246 93 q 219 -11 246 15 q 153 -37 192 -37 q 87 -11 114 -37 q 60 54 60 15 q 87 120 60 93 z "},"\"":{"ha":525,"x_min":29,"x_max":513,"o":"m 158 1024 q 250 956 228 1024 q 235 821 272 889 q 124 753 199 753 q 64 768 88 753 q 35 797 40 783 l 29 813 q 96 872 85 813 q 69 935 69 896 q 95 997 69 971 q 158 1024 121 1024 m 397 1024 q 490 956 467 1024 q 476 821 513 889 q 364 753 439 753 q 304 768 328 753 q 275 797 281 783 l 268 813 q 336 872 325 813 q 308 935 308 897 q 335 997 308 971 q 397 1024 361 1024 z "},"#":{"ha":908,"x_min":28,"x_max":881,"o":"m 881 1061 q 804 944 835 1026 l 696 667 q 763 675 735 668 q 800 689 792 682 l 810 694 l 810 568 q 679 589 783 589 l 665 589 l 613 453 q 684 460 654 453 q 722 474 714 467 l 732 481 l 732 354 q 601 374 707 374 l 582 374 l 460 61 q 447 2 447 31 q 453 -39 447 -26 l 460 -53 l 258 -53 q 331 65 303 -21 l 432 374 l 293 374 l 253 276 q 242 216 242 242 q 247 175 242 190 l 254 161 l 53 161 q 125 279 96 194 l 151 374 q 76 369 107 374 q 36 358 46 364 l 28 354 l 28 481 q 156 453 56 453 l 175 453 l 214 589 q 148 583 175 588 q 114 572 121 578 l 106 568 l 106 694 q 233 667 132 667 l 238 667 l 271 783 q 280 845 281 819 q 272 885 279 871 l 267 899 l 532 899 q 457 781 488 863 l 411 667 l 528 667 l 619 947 q 628 1009 629 983 q 619 1047 626 1035 l 614 1061 l 881 1061 m 457 453 l 501 589 l 379 589 l 324 453 l 457 453 z "},"$":{"ha":464,"x_min":25,"x_max":436,"o":"m 436 154 q 394 20 436 71 q 285 -46 353 -31 q 291 -112 286 -85 q 300 -147 296 -139 l 306 -156 l 179 -156 q 207 -51 203 -133 q 107 -16 147 -47 q 52 56 67 15 q 31 136 38 96 q 28 203 25 176 l 31 231 l 139 231 q 136 207 138 222 q 137 153 135 192 q 147 86 139 115 q 176 33 154 57 q 232 10 197 10 q 284 30 265 10 q 303 82 303 50 q 235 296 303 140 q 99 615 167 451 q 31 858 31 778 q 74 998 31 940 q 199 1068 117 1056 q 194 1134 199 1107 q 183 1169 189 1161 l 179 1178 l 306 1178 q 278 1068 281 1153 q 356 1029 325 1060 q 395 961 386 999 q 406 888 404 924 q 404 828 408 853 l 400 804 l 307 804 q 310 826 308 813 q 312 876 311 840 q 307 940 313 913 q 285 989 301 967 q 242 1011 269 1011 q 196 988 213 1011 q 179 928 179 965 q 219 767 179 875 q 308 555 260 660 q 396 335 356 450 q 436 154 436 219 z "},"%":{"ha":817,"x_min":28,"x_max":789,"o":"m 338 739 q 292 539 338 622 q 183 456 247 456 q 74 539 119 456 q 28 739 28 622 q 73 940 28 857 q 183 1022 118 1022 q 292 940 247 1022 q 338 739 338 857 m 128 739 q 144 566 128 635 q 183 497 160 497 q 222 566 206 497 q 238 739 238 635 q 222 913 238 843 q 183 982 206 982 q 144 913 160 982 q 128 739 128 844 m 633 567 q 744 484 699 567 q 789 283 789 401 q 744 83 789 165 q 633 0 699 0 q 524 83 569 0 q 479 283 479 165 q 524 484 479 401 q 633 567 569 567 m 633 42 q 673 110 657 42 q 689 283 689 179 q 673 456 689 388 q 633 525 657 525 q 595 456 611 525 q 579 283 579 388 q 595 110 579 179 q 633 42 611 42 m 315 61 q 304 1 304 26 q 311 -39 304 -24 l 317 -53 l 115 -53 q 188 65 158 -21 l 475 947 q 484 1009 485 983 q 478 1047 483 1035 l 471 1061 l 736 1061 q 660 944 692 1026 l 315 61 z "},"&":{"ha":575,"x_min":29,"x_max":546,"o":"m 529 354 q 399 -40 529 54 q 450 -178 426 -122 q 297 -228 336 -186 q 290 -82 303 -181 q 256 -83 279 -83 q 29 207 29 -83 q 68 376 29 294 q 179 560 107 458 q 131 879 131 813 q 206 1040 131 992 q 356 1045 281 1089 q 431 889 431 1001 q 410 793 431 854 q 342 617 389 732 q 278 453 296 501 q 363 78 318 235 q 390 185 383 126 q 383 315 396 244 q 335 443 371 385 q 546 464 482 429 q 529 354 529 429 m 226 874 q 244 653 226 788 q 343 888 343 796 q 293 979 343 979 q 242 947 258 979 q 226 874 226 915 m 275 -8 l 281 -8 q 228 306 265 106 q 199 144 199 210 q 275 -8 199 -8 z "},"'":{"ha":283,"x_min":28,"x_max":272,"o":"m 157 1024 q 249 956 226 1024 q 235 821 272 889 q 124 753 199 753 q 63 768 88 753 q 33 797 39 783 l 28 813 q 94 872 86 813 q 68 935 68 896 q 94 997 68 971 q 157 1024 121 1024 z "},"(":{"ha":386,"x_min":28,"x_max":358,"o":"m 358 -50 l 358 -110 q 205 -28 281 -110 q 78 199 129 54 q 28 507 28 343 q 78 815 28 671 q 205 1041 129 960 q 358 1122 281 1122 l 358 1064 q 294 991 329 1064 q 233 785 260 918 q 207 507 207 651 q 233 229 207 363 q 294 23 260 96 q 358 -50 329 -50 z "},")":{"ha":386,"x_min":28,"x_max":358,"o":"m 28 -110 l 28 -50 q 92 23 57 -50 q 153 229 126 96 q 179 507 179 363 q 153 785 179 651 q 92 991 126 918 q 28 1064 57 1064 l 28 1122 q 181 1041 106 1122 q 308 815 257 960 q 358 507 358 671 q 308 199 358 343 q 181 -28 257 54 q 28 -110 106 -110 z "},"*":{"ha":328,"x_min":29,"x_max":299,"o":"m 299 918 l 299 861 l 233 861 l 279 814 l 239 774 l 193 821 l 193 754 l 135 754 l 135 821 l 89 774 l 49 814 l 94 861 l 29 861 l 29 918 l 94 918 l 49 964 l 89 1004 l 135 958 l 135 1024 l 193 1024 l 193 958 l 239 1004 l 279 964 l 233 918 l 299 918 z "},"+":{"ha":456,"x_min":28,"x_max":428,"o":"m 300 529 q 376 536 344 529 q 418 550 408 543 l 428 557 l 428 432 q 297 451 401 451 l 263 451 l 263 422 q 269 346 263 378 q 283 304 276 314 l 290 294 l 165 294 q 185 425 185 321 l 185 451 l 158 451 q 80 447 113 451 q 38 436 47 442 l 28 432 l 28 557 q 156 529 56 529 l 185 529 l 185 564 q 180 642 185 610 q 169 685 175 675 l 165 694 l 290 694 q 263 567 263 667 l 263 529 l 300 529 z "},",":{"ha":283,"x_min":28,"x_max":272,"o":"m 157 136 q 249 68 226 136 q 235 -68 272 0 q 124 -136 199 -136 q 63 -121 88 -136 q 33 -90 39 -106 l 28 -75 q 94 -17 86 -75 q 68 47 68 10 q 94 110 68 83 q 157 136 121 136 z "},"-":{"ha":456,"x_min":28,"x_max":428,"o":"m 300 529 q 376 536 344 529 q 418 550 408 543 l 428 557 l 428 432 q 297 451 401 451 l 158 451 q 80 447 113 451 q 38 436 47 442 l 28 432 l 28 557 q 156 529 56 529 l 300 529 z "},".":{"ha":242,"x_min":28,"x_max":214,"o":"m 214 93 q 187 27 214 54 q 121 0 160 0 q 55 27 82 0 q 28 93 28 54 q 55 158 28 131 q 121 185 82 185 q 187 158 160 185 q 214 93 214 131 z "},"/":{"ha":678,"x_min":28,"x_max":650,"o":"m 383 1061 l 650 1061 q 574 944 606 1026 l 229 61 q 217 2 217 31 q 222 -39 217 -26 l 229 -53 l 28 -53 q 100 65 72 -21 l 389 947 q 397 1009 399 983 q 389 1047 396 1035 l 383 1061 z "},":":{"ha":242,"x_min":28,"x_max":214,"o":"m 55 158 q 68 171 55 158 q 121 185 82 185 q 187 158 160 185 q 214 93 214 131 q 187 27 214 54 q 121 0 160 0 q 55 27 82 0 q 28 93 28 54 q 55 158 28 131 m 187 575 q 173 562 187 575 q 121 549 160 549 q 55 575 82 549 q 28 640 28 601 q 55 706 28 679 q 121 733 82 733 q 187 706 160 733 q 214 640 214 679 q 187 575 214 601 z "},";":{"ha":289,"x_min":28,"x_max":272,"o":"m 157 136 q 249 68 226 136 q 235 -68 272 0 q 124 -136 199 -136 q 63 -121 88 -136 q 33 -90 39 -106 l 28 -75 q 94 -17 86 -75 q 68 47 68 13 q 94 110 68 83 q 157 136 121 136 m 234 575 q 220 562 234 575 q 168 549 207 549 q 103 575 129 549 q 76 640 76 601 q 103 706 76 679 q 168 733 129 733 q 234 706 207 733 q 261 640 261 679 q 234 575 261 601 z "},"<":{"ha":464,"x_min":28,"x_max":436,"o":"m 139 346 l 326 158 q 385 109 358 126 q 425 89 413 92 l 436 88 l 347 -1 q 269 104 343 31 l 28 346 l 269 588 q 322 647 303 621 q 344 683 342 674 l 347 694 l 436 606 q 326 535 397 606 l 139 346 z "},"=":{"ha":456,"x_min":28,"x_max":428,"o":"m 300 529 q 376 536 344 529 q 418 550 408 543 l 428 557 l 428 432 q 297 451 401 451 l 158 451 q 80 447 113 451 q 38 436 47 442 l 28 432 l 28 557 q 156 529 56 529 l 300 529 m 156 351 l 300 351 q 376 358 344 351 q 418 372 408 365 l 428 379 l 428 253 q 297 274 401 274 l 158 274 q 80 269 113 274 q 38 258 47 264 l 28 253 l 28 379 q 156 351 56 351 z "},">":{"ha":464,"x_min":28,"x_max":436,"o":"m 138 158 l 325 346 l 138 535 q 78 584 106 567 q 39 603 51 601 l 28 606 l 117 694 q 194 588 121 663 l 436 346 l 194 104 q 142 44 161 71 q 119 8 122 18 l 117 -1 l 28 88 q 138 158 67 88 z "},"?":{"ha":550,"x_min":26,"x_max":521,"o":"m 180 110 q 193 123 180 110 q 246 136 207 136 q 311 110 285 136 q 338 44 338 83 q 311 -22 338 6 q 246 -49 285 -49 q 180 -22 207 -49 q 153 44 153 6 q 180 110 153 83 m 208 594 q 200 596 206 596 q 178 593 194 596 q 146 583 163 590 q 106 554 129 575 q 61 503 82 533 q 31 669 35 575 q 47 855 26 763 q 131 1010 67 947 q 296 1074 196 1074 q 458 988 396 1074 q 521 772 521 901 q 500 638 521 699 q 449 532 479 576 q 388 442 418 488 q 336 335 357 397 q 315 196 315 272 l 183 196 q 202 347 183 281 q 247 460 221 414 q 299 552 272 506 q 344 668 325 599 q 363 825 363 738 q 346 946 363 888 q 296 1004 329 1004 q 229 945 258 1004 q 193 794 200 886 q 208 594 186 703 z "},"@":{"ha":1014,"x_min":18,"x_max":1004,"o":"m 554 1038 q 914 844 799 1038 q 981 494 1004 693 q 865 231 961 319 q 736 178 808 178 q 590 360 611 178 q 456 224 539 224 q 327 363 358 224 q 356 642 296 503 q 540 782 417 782 q 644 703 618 782 l 742 703 q 751 249 654 249 q 831 429 806 249 q 790 790 857 610 q 554 971 724 971 q 283 803 383 971 q 204 449 192 651 q 333 126 215 240 q 635 44 450 14 l 635 -19 q 172 110 343 -65 q 29 461 40 247 q 136 835 19 674 q 526 1038 275 1026 q 554 1038 540 1038 m 488 446 q 533 497 513 446 q 554 590 554 547 q 535 640 554 633 q 490 590 513 640 q 465 496 467 539 q 488 446 463 453 z "},"A":{"ha":708,"x_min":28,"x_max":681,"o":"m 681 15 l 424 -12 q 431 1 426 -8 q 442 41 436 11 q 446 104 449 71 l 432 289 l 244 289 l 196 111 q 185 32 185 71 q 190 -25 185 -7 l 196 -43 l 28 -43 q 108 115 81 22 l 375 1022 l 510 1001 l 631 124 q 649 63 636 90 q 671 25 661 36 l 681 15 m 261 346 l 428 346 l 392 813 l 261 346 z "},"B":{"ha":619,"x_min":29,"x_max":590,"o":"m 471 514 q 590 264 590 469 q 444 5 590 68 q 29 0 299 -58 q 65 511 65 103 q 56 822 65 694 q 39 986 47 950 l 29 1022 q 298 1044 181 1054 q 486 965 415 1035 q 557 769 557 894 q 471 514 557 582 m 385 765 q 344 947 385 892 q 206 993 303 1001 q 235 539 233 843 q 347 592 310 544 q 385 765 385 640 m 264 18 q 419 235 419 18 q 385 421 419 367 q 235 481 350 475 q 204 28 233 161 q 264 18 228 18 z "},"C":{"ha":550,"x_min":26,"x_max":522,"o":"m 518 900 l 396 858 q 397 868 396 863 q 400 892 399 874 q 401 926 401 910 q 399 961 401 942 q 392 994 397 981 q 377 1018 388 1008 q 353 1028 367 1028 q 263 919 299 1028 q 217 657 226 811 q 215 348 208 503 q 252 85 221 193 q 328 -24 283 -24 q 388 11 361 -24 q 425 81 415 46 l 436 115 l 522 6 q 501 -19 515 -4 q 435 -58 486 -33 q 329 -83 385 -83 q 208 -44 263 -83 q 118 64 153 -4 q 59 219 83 132 q 31 403 35 306 q 33 597 26 500 q 67 780 40 693 q 131 935 94 867 q 225 1042 168 1003 q 350 1082 282 1082 q 415 1072 386 1082 q 462 1046 444 1063 q 492 1010 479 1029 q 509 972 504 992 q 516 936 514 953 q 518 910 518 919 l 518 900 z "},"D":{"ha":636,"x_min":28,"x_max":617,"o":"m 28 1022 q 472 918 310 1096 q 607 550 597 781 q 514 160 617 328 q 211 -32 403 -24 q 28 0 125 -36 q 64 511 64 103 q 55 822 64 694 q 36 986 46 950 l 28 1022 m 207 42 q 364 169 303 15 q 417 567 428 333 q 306 931 403 821 q 206 989 263 981 q 233 511 233 843 q 207 42 233 190 z "},"E":{"ha":567,"x_min":28,"x_max":539,"o":"m 451 939 q 415 935 438 938 q 325 931 392 933 q 214 938 258 929 q 233 542 233 769 q 322 562 296 544 q 347 629 347 579 l 397 629 l 397 507 l 397 386 l 347 386 q 322 453 347 436 q 233 474 296 471 q 214 92 232 222 q 324 100 275 100 q 403 94 372 100 l 433 90 q 459 174 444 139 q 483 219 474 208 l 492 229 l 539 238 q 513 156 519 214 q 508 51 506 97 l 511 6 q 281 29 389 31 q 100 14 174 28 l 28 0 q 64 511 64 103 q 55 822 64 694 q 36 986 46 950 l 28 1022 q 58 1015 39 1019 q 138 1003 78 1011 q 257 992 199 996 q 394 994 315 989 q 539 1015 472 999 l 539 865 l 501 851 l 451 939 z "},"F":{"ha":567,"x_min":28,"x_max":539,"o":"m 28 992 q 58 985 39 989 q 138 973 78 981 q 257 962 199 965 q 394 963 315 958 q 539 985 472 968 l 539 833 l 501 819 l 451 907 q 415 903 438 906 q 325 899 392 901 q 214 906 258 897 q 233 511 233 740 q 321 530 294 513 q 347 597 347 547 l 397 597 l 397 476 l 397 354 l 347 354 q 322 422 347 404 q 233 442 296 439 q 210 28 232 175 l 36 0 q 64 479 64 71 q 55 790 64 663 q 36 956 46 918 l 28 992 z "},"G":{"ha":586,"x_min":26,"x_max":561,"o":"m 519 451 q 553 328 544 414 q 548 149 561 242 q 478 -13 535 57 q 329 -83 421 -83 q 208 -44 263 -83 q 118 64 153 -4 q 59 219 83 132 q 31 403 35 306 q 33 597 26 500 q 67 780 40 693 q 131 935 94 867 q 225 1042 168 1003 q 350 1082 282 1082 q 436 1063 400 1082 q 488 1018 472 1044 q 511 965 503 992 q 519 919 519 938 l 519 900 l 396 858 q 397 868 396 863 q 400 892 399 874 q 401 926 401 910 q 399 961 401 942 q 392 994 397 981 q 377 1018 388 1008 q 353 1028 367 1028 q 263 919 299 1028 q 217 657 226 811 q 215 348 208 503 q 252 85 221 193 q 328 -24 283 -24 q 397 58 374 -24 q 417 229 419 140 q 394 346 414 318 q 285 346 319 325 q 290 363 288 353 q 298 404 293 374 q 293 454 303 435 q 327 448 306 451 q 412 440 349 444 q 519 451 475 436 z "},"H":{"ha":647,"x_min":29,"x_max":618,"o":"m 371 -61 q 408 118 408 6 l 408 447 l 239 447 l 239 -8 q 249 -91 239 -49 q 269 -156 258 -133 l 279 -179 l 32 -179 q 69 0 69 -112 l 69 981 q 60 1063 69 1021 q 39 1128 50 1106 l 29 1151 l 276 1151 q 239 972 239 1085 l 239 504 l 408 504 l 408 908 q 399 991 408 949 q 378 1056 389 1033 l 368 1078 l 615 1078 q 578 899 578 1013 l 578 110 q 588 -8 578 42 q 608 -72 597 -57 l 618 -89 l 371 -61 z "},"I":{"ha":306,"x_min":29,"x_max":276,"o":"m 238 843 l 225 156 q 235 74 225 117 q 256 8 244 32 l 265 -14 l 46 -43 q 83 165 83 53 l 71 853 l 69 853 q 60 935 69 893 q 39 1000 50 978 l 29 1022 l 276 1022 q 239 843 239 957 l 238 843 z "},"J":{"ha":558,"x_min":26,"x_max":531,"o":"m 499 911 l 499 476 q 499 418 499 469 q 500 334 500 367 q 496 241 500 301 q 483 140 492 181 q 455 49 474 99 q 410 -32 436 -1 q 343 -84 385 -62 q 249 -106 301 -106 q 137 -75 183 -106 q 67 2 90 -44 q 35 108 44 49 q 29 222 26 168 q 42 326 32 276 l 39 328 q 49 378 46 354 q 51 411 51 401 l 51 421 l 92 401 l 186 358 l 204 349 q 163 299 181 338 q 144 190 149 249 q 145 78 139 132 q 176 -10 151 25 q 239 -46 200 -46 q 295 -15 274 -46 q 325 96 317 17 q 334 224 333 175 q 335 393 335 272 q 335 468 335 443 l 335 1021 q 220 986 278 1015 q 133 931 163 957 l 103 903 l 103 1086 l 531 1086 q 499 911 499 1044 z "},"K":{"ha":667,"x_min":29,"x_max":638,"o":"m 539 132 q 584 55 560 88 q 622 11 608 22 l 635 0 l 440 0 q 448 13 444 4 q 456 54 451 22 q 443 126 460 86 q 286 558 379 317 q 263 525 279 549 q 239 490 247 501 l 239 171 q 249 88 239 131 q 269 22 258 46 l 279 0 l 31 0 q 69 179 69 65 l 69 853 q 60 935 69 893 q 39 1000 50 978 l 29 1022 l 276 1022 q 239 843 239 957 l 239 603 q 425 874 381 793 q 458 955 450 918 q 461 1007 465 992 l 457 1022 l 638 1022 q 551 933 601 1001 q 336 629 506 868 q 539 132 508 196 z "},"L":{"ha":533,"x_min":28,"x_max":506,"o":"m 506 144 q 479 61 486 119 q 475 -43 472 3 l 478 -89 q 257 -64 357 -62 q 94 -79 157 -65 l 31 -93 q 68 86 68 -28 l 68 911 q 58 992 68 950 q 38 1058 47 1035 l 28 1081 l 276 1081 q 238 901 238 1015 l 238 1 q 322 6 286 7 q 379 1 358 6 l 400 -3 q 426 79 411 44 q 450 125 440 114 l 458 136 l 506 144 z "},"M":{"ha":692,"x_min":28,"x_max":664,"o":"m 415 0 q 453 179 453 65 l 453 807 q 372 388 396 479 q 367 331 365 356 q 375 294 369 307 l 382 281 l 222 281 q 219 394 240 328 q 176 524 211 417 q 124 683 142 631 l 124 210 q 128 131 124 164 q 139 89 133 99 l 144 79 l 28 79 q 56 207 56 107 l 56 671 q 49 834 56 756 q 35 949 42 913 l 28 985 l 249 985 q 243 960 246 975 q 237 897 240 944 q 247 813 233 849 q 331 515 254 789 q 388 792 368 715 q 395 821 389 796 q 403 856 401 846 q 411 891 406 867 q 417 933 417 915 q 419 974 418 950 q 419 1021 421 997 q 413 1069 417 1044 l 661 1069 q 622 890 622 1003 l 622 171 q 633 88 622 131 q 653 22 643 46 l 664 0 l 415 0 z "},"N":{"ha":522,"x_min":28,"x_max":494,"o":"m 467 757 l 467 124 q 472 56 467 86 q 481 13 476 25 l 486 0 l 322 0 q 318 114 340 47 q 135 714 258 304 l 135 249 q 140 169 135 201 q 150 128 144 136 l 154 118 l 28 118 q 56 246 56 146 l 56 710 q 49 873 56 794 q 35 986 42 951 l 28 1022 l 258 1022 q 253 997 256 1013 q 247 934 250 982 q 257 850 243 886 q 388 383 260 842 l 388 757 l 388 1022 l 388 1025 q 383 1105 388 1072 q 372 1147 378 1138 l 368 1156 l 494 1156 q 467 1028 467 1129 l 467 1019 l 467 757 z "},"O":{"ha":614,"x_min":29,"x_max":585,"o":"m 110 952 q 151 1042 110 952 q 307 1132 192 1132 q 503 952 422 1132 q 585 517 585 772 q 503 81 585 261 q 307 -100 422 -100 q 110 81 192 -100 q 29 517 29 261 q 110 952 29 772 m 236 122 q 251 41 236 122 q 307 -40 265 -40 q 378 122 349 -40 q 407 517 407 285 q 378 910 407 747 q 307 1074 349 1074 q 236 910 265 1074 q 207 517 207 747 q 236 122 207 285 z "},"P":{"ha":614,"x_min":28,"x_max":592,"o":"m 28 1022 q 483 964 329 1101 q 586 707 592 868 q 475 444 581 553 q 238 333 379 346 l 238 81 q 248 -2 238 40 q 268 -67 258 -44 l 278 -89 l 31 -89 q 68 89 68 -24 l 68 853 q 58 935 68 893 q 38 1000 47 978 l 28 1022 m 238 946 l 238 843 l 238 392 q 355 470 306 406 q 418 619 404 535 q 422 785 432 703 q 363 928 413 868 q 238 996 314 989 l 238 946 z "},"Q":{"ha":614,"x_min":29,"x_max":585,"o":"m 585 517 q 529 147 585 310 q 386 -74 474 -17 q 558 -58 485 -71 l 510 -239 q 504 -227 508 -235 q 484 -201 500 -219 q 447 -167 468 -182 q 389 -141 426 -153 q 307 -129 351 -129 q 225 -140 263 -129 q 166 -167 188 -151 q 130 -200 144 -183 q 110 -228 115 -217 l 104 -239 l 56 -58 q 225 -72 126 -68 q 84 149 139 -14 q 29 517 29 311 q 110 952 29 772 q 307 1132 192 1132 q 503 952 422 1132 q 585 517 585 772 m 378 910 q 363 992 378 910 q 307 1074 349 1074 q 236 910 265 1074 q 207 517 207 747 q 236 122 207 285 q 307 -40 265 -40 q 378 122 349 -40 q 407 517 407 285 q 378 910 407 747 z "},"R":{"ha":700,"x_min":28,"x_max":672,"o":"m 361 443 q 474 348 433 413 q 528 214 515 283 q 553 78 542 144 q 592 -30 565 13 q 672 -72 619 -72 l 672 -131 q 510 -103 574 -131 q 419 -30 446 -75 q 382 70 393 15 q 367 182 371 125 q 356 287 364 239 q 320 369 349 335 q 239 413 292 404 l 239 171 q 249 88 239 131 q 269 22 258 46 l 279 0 l 31 0 q 69 179 69 65 l 69 853 q 59 935 69 893 q 39 1000 49 978 l 28 1022 q 489 976 335 1103 q 586 749 593 892 q 474 514 579 611 q 361 443 425 468 m 239 946 l 239 843 l 239 474 q 339 526 296 483 q 404 626 382 569 q 428 748 426 683 q 412 867 431 813 q 348 959 393 922 q 239 999 303 996 l 239 946 z "},"S":{"ha":478,"x_min":28,"x_max":450,"o":"m 194 939 q 258 722 194 875 q 386 409 322 569 q 450 165 450 249 q 391 13 450 65 q 243 -40 332 -40 q 141 -18 183 -40 q 78 42 99 4 q 51 113 58 79 q 42 183 43 146 q 38 216 42 201 q 31 236 35 231 l 28 243 l 119 243 l 163 243 q 150 185 150 225 q 246 21 150 21 q 298 41 279 21 q 317 94 317 61 q 249 308 317 153 q 113 626 181 463 q 44 869 44 789 q 98 1022 44 961 q 251 1082 151 1082 q 342 1061 306 1082 q 394 1006 379 1040 q 415 939 410 971 q 419 872 421 907 q 422 844 419 858 q 428 822 425 829 l 429 815 l 414 815 l 343 815 l 321 815 l 310 815 q 325 864 322 831 q 257 1022 332 1022 q 211 999 228 1022 q 194 939 194 976 z "},"T":{"ha":631,"x_min":29,"x_max":601,"o":"m 29 1181 q 315 1165 94 1165 q 601 1181 536 1165 l 601 1031 l 565 1017 l 515 1104 q 401 1093 469 1097 l 401 69 q 412 -13 401 29 q 432 -78 422 -56 l 442 -101 l 193 -101 q 232 78 232 -35 l 232 1092 q 115 1104 154 1097 l 65 1017 l 29 1031 l 29 1181 z "},"U":{"ha":639,"x_min":28,"x_max":611,"o":"m 611 -62 l 363 -62 q 400 100 397 -3 q 217 -31 326 -31 q 156 -20 182 -31 q 115 14 131 -10 q 89 63 99 38 q 75 131 79 88 q 69 208 71 174 q 68 299 68 242 l 68 953 q 58 1035 68 993 q 38 1100 47 1078 l 28 1124 l 276 1124 q 238 944 238 1057 l 238 299 q 239 224 238 250 q 245 164 240 199 q 263 113 250 129 q 297 97 276 97 q 401 197 347 97 l 401 879 q 391 962 401 919 q 369 1028 381 1004 l 360 1050 l 608 1050 q 571 871 571 983 l 571 108 q 581 26 571 68 q 601 -39 592 -17 l 611 -62 z "},"V":{"ha":675,"x_min":29,"x_max":646,"o":"m 446 131 q 444 56 440 85 q 454 14 447 26 l 461 0 l 426 0 l 246 0 l 214 0 q 220 10 217 3 q 228 51 224 18 q 221 133 232 83 l 82 900 l 82 900 l 79 910 q 61 973 74 942 q 39 1019 49 1004 l 29 1035 l 286 1035 q 280 1022 283 1031 q 271 983 276 1013 q 267 919 265 953 l 367 210 l 486 960 q 488 1028 489 1000 q 482 1072 486 1057 l 478 1089 l 646 1089 q 571 933 590 1026 l 446 131 z "},"W":{"ha":1028,"x_min":28,"x_max":1000,"o":"m 800 131 q 797 56 794 85 q 808 14 800 26 l 815 0 l 779 0 l 599 0 l 567 0 q 573 10 569 3 q 581 51 576 18 q 575 133 586 83 l 506 515 l 446 131 q 443 56 440 85 q 453 14 446 26 l 461 0 l 425 0 l 244 0 l 213 0 q 219 10 215 3 q 227 51 222 18 q 221 133 232 83 l 81 900 l 81 900 l 79 910 q 60 973 74 942 q 38 1019 47 1004 l 28 1035 l 285 1035 q 278 1022 282 1031 q 269 983 275 1013 q 267 919 264 953 l 365 210 l 450 739 q 453 812 456 782 q 444 858 450 842 l 438 875 l 675 875 q 668 862 672 871 q 658 823 664 853 q 653 760 651 793 l 719 210 l 840 960 q 841 1028 843 1000 q 836 1072 839 1057 l 832 1089 l 1000 1089 q 924 933 944 1026 l 800 131 z "},"X":{"ha":689,"x_min":28,"x_max":661,"o":"m 583 38 q 614 -30 596 0 q 644 -69 632 -60 l 656 -81 l 454 -81 q 454 35 482 -33 l 317 386 l 193 113 q 176 55 178 83 q 181 14 175 26 l 186 0 l 28 0 q 100 103 64 26 l 275 494 l 110 917 q 77 983 96 953 q 46 1024 58 1013 l 33 1035 l 300 1035 q 294 1022 297 1031 q 286 982 290 1013 q 294 921 282 951 l 367 700 l 494 986 q 503 1038 504 1015 q 494 1075 501 1061 l 488 1089 l 661 1089 q 585 974 624 1049 l 406 581 l 583 38 z "},"Y":{"ha":689,"x_min":29,"x_max":660,"o":"m 599 939 l 415 467 l 415 171 q 426 88 415 131 q 446 22 436 46 l 456 0 l 207 0 q 246 179 246 65 l 246 467 l 92 888 l 29 1022 l 286 1022 q 280 1010 283 1018 q 272 972 276 1001 q 278 908 267 943 l 374 599 l 497 907 l 496 907 q 513 972 511 943 q 507 1011 514 1000 l 500 1022 l 660 1022 q 599 939 631 1003 z "},"Z":{"ha":572,"x_min":29,"x_max":543,"o":"m 492 168 l 539 178 q 513 94 519 153 q 508 -10 506 36 l 511 -56 q 281 -32 389 -31 q 101 -47 174 -33 l 29 -61 l 353 988 q 246 980 293 979 q 169 985 199 981 l 139 989 q 113 906 128 940 q 89 861 99 871 l 81 850 l 33 842 q 60 924 53 865 q 64 1028 67 982 l 61 1074 q 291 1050 183 1049 q 471 1065 399 1051 l 543 1079 l 231 33 q 333 40 288 40 q 406 35 378 39 l 433 31 q 459 113 444 78 q 483 158 474 147 l 492 168 z "},"[":{"ha":381,"x_min":29,"x_max":351,"o":"m 217 18 q 284 10 250 17 q 335 -3 318 3 l 351 -10 l 351 -76 q 69 -69 243 -44 l 36 -76 l 38 -75 q 65 493 65 92 q 56 861 65 710 q 39 1056 47 1013 l 29 1099 q 82 1089 49 1094 q 199 1082 115 1083 q 344 1099 283 1081 l 344 1032 q 214 1004 288 1010 q 235 493 235 817 q 217 18 235 190 z "},"\\":{"ha":678,"x_min":28,"x_max":650,"o":"m 28 1061 l 294 1061 q 288 1048 292 1057 q 281 1009 285 1039 q 289 947 276 979 l 578 65 q 608 -3 590 26 q 639 -42 626 -32 l 650 -53 l 449 -53 q 449 61 476 -7 l 104 944 q 71 1010 90 981 q 39 1050 51 1039 l 28 1061 z "},"]":{"ha":381,"x_min":29,"x_max":351,"o":"m 164 18 q 146 493 146 190 q 167 1004 146 817 q 101 1014 133 1007 q 53 1026 68 1021 l 36 1032 l 36 1099 q 176 1081 97 1081 q 303 1089 256 1081 l 351 1099 q 315 493 315 978 q 343 -75 315 92 l 344 -76 l 311 -69 q 29 -76 138 -44 l 29 -10 q 164 18 88 14 z "},"^":{"ha":753,"x_min":29,"x_max":724,"o":"m 564 724 l 376 913 l 189 724 q 140 665 157 692 q 119 625 122 638 l 118 614 l 29 703 q 135 781 61 707 l 376 1022 l 618 781 q 678 728 651 747 q 714 706 704 708 l 724 703 l 635 614 q 564 724 635 653 z "},"_":{"ha":456,"x_min":28,"x_max":428,"o":"m 300 -26 q 376 -19 344 -26 q 418 -6 408 -12 l 428 1 l 428 -125 q 297 -104 401 -104 l 158 -104 q 80 -109 113 -104 q 38 -119 47 -114 l 28 -125 l 28 1 q 156 -26 56 -26 l 300 -26 z "},"`":{"ha":275,"x_min":28,"x_max":247,"o":"m 28 924 l 157 1024 q 162 990 158 1011 q 188 917 165 968 q 247 833 210 867 l 175 769 q 159 805 169 783 q 110 869 149 826 q 28 924 72 911 z "},"a":{"ha":582,"x_min":28,"x_max":553,"o":"m 553 113 l 346 90 q 352 101 349 94 q 360 133 356 108 q 364 183 365 157 l 353 333 l 203 333 l 163 190 q 154 126 154 157 q 158 81 154 94 l 163 65 l 28 65 q 93 193 69 118 l 307 922 l 415 906 l 513 200 q 527 151 517 172 q 544 121 538 129 l 553 113 m 215 379 l 349 379 l 321 754 l 215 379 z "},"b":{"ha":508,"x_min":28,"x_max":481,"o":"m 383 514 q 481 313 481 476 q 28 100 481 4 q 57 511 57 182 q 50 761 57 658 q 36 893 43 864 l 28 922 q 335 917 217 967 q 453 719 453 868 q 383 514 453 567 m 284 576 q 299 596 284 576 q 314 717 314 615 q 281 862 314 818 q 169 900 249 906 q 193 535 193 778 q 284 576 254 538 m 218 114 q 343 289 343 114 q 315 438 343 394 q 193 488 286 482 q 169 122 193 240 q 218 114 197 114 z "},"c":{"ha":453,"x_min":19,"x_max":425,"o":"m 422 825 l 324 790 q 326 805 325 796 q 327 838 326 814 q 326 879 328 861 q 314 912 324 897 q 289 926 304 926 q 216 840 246 926 q 179 628 186 753 q 178 378 172 503 q 208 167 183 254 q 269 81 233 81 q 318 108 296 81 q 349 164 340 136 l 357 193 l 425 104 q 408 84 419 96 q 356 53 396 72 q 271 33 315 33 q 149 85 203 33 q 69 219 96 136 q 31 403 43 303 q 34 602 19 503 q 78 785 49 701 q 162 919 107 868 q 286 971 217 971 q 384 934 350 971 q 419 861 418 897 l 422 825 z "},"d":{"ha":522,"x_min":28,"x_max":499,"o":"m 28 922 q 396 826 265 985 q 493 506 497 703 q 390 188 490 313 q 81 83 271 38 q 28 100 54 90 q 57 511 57 182 q 50 761 57 658 q 36 893 43 864 l 28 922 m 172 135 q 303 247 253 113 q 338 590 356 393 q 228 872 319 803 q 171 896 201 892 q 193 511 193 769 q 172 135 193 256 z "},"e":{"ha":467,"x_min":28,"x_max":439,"o":"m 368 856 q 339 853 357 854 q 267 849 321 851 q 176 854 213 847 q 193 536 193 740 q 264 553 243 539 q 285 606 285 567 l 325 606 l 325 508 l 325 411 l 285 411 q 264 465 285 451 q 193 481 243 479 q 178 174 193 301 q 265 181 221 181 q 331 178 308 181 l 354 174 q 374 240 363 213 q 394 276 386 268 l 401 285 l 439 292 q 418 225 424 272 q 414 142 413 178 l 417 104 q 231 124 318 125 q 86 111 144 124 l 28 100 q 57 511 57 182 q 50 761 57 658 q 36 893 43 864 l 28 922 q 52 917 36 919 q 116 908 68 914 q 211 899 164 901 q 322 900 258 896 q 439 918 385 904 l 439 796 l 408 785 l 368 856 z "},"f":{"ha":467,"x_min":28,"x_max":439,"o":"m 28 897 q 52 892 36 894 q 116 883 68 889 q 211 874 164 876 q 322 875 258 871 q 439 892 385 879 l 439 771 l 408 760 l 368 831 q 339 828 357 829 q 267 824 321 826 q 176 829 213 822 q 193 511 193 713 q 264 526 243 513 q 285 581 285 540 l 325 581 l 325 483 l 325 386 l 285 386 q 264 439 285 425 q 193 456 243 453 q 174 122 193 246 l 35 100 q 57 486 57 157 q 50 736 57 633 q 36 868 43 839 l 28 897 z "},"g":{"ha":483,"x_min":21,"x_max":457,"o":"m 425 464 q 451 364 444 433 q 447 220 457 294 q 390 90 436 146 q 271 33 344 33 q 150 85 203 33 q 71 219 97 136 q 33 403 44 303 q 35 602 21 503 q 79 785 50 701 q 163 919 108 868 q 288 971 218 971 q 385 934 351 971 q 422 861 419 897 l 424 825 l 324 790 q 324 798 324 793 q 326 817 325 803 q 328 844 328 831 q 326 873 328 857 q 322 900 325 889 q 310 919 318 911 q 290 926 301 926 q 217 840 247 926 q 181 628 188 753 q 179 378 174 503 q 209 167 185 254 q 269 81 233 81 q 326 147 307 81 q 342 284 344 213 q 324 378 339 356 q 235 378 264 361 q 240 392 238 383 q 245 425 242 400 q 242 465 249 450 q 269 460 253 463 q 338 454 286 457 q 425 464 389 451 z "},"h":{"ha":531,"x_min":28,"x_max":503,"o":"m 303 51 q 333 196 333 104 l 333 460 l 197 460 l 197 93 q 206 27 197 61 q 222 -25 214 -7 l 229 -43 l 31 -43 q 61 100 61 10 l 61 889 q 53 956 61 922 q 36 1008 44 990 l 28 1026 l 228 1026 q 197 882 197 974 l 197 506 l 333 506 l 333 831 q 325 897 333 863 q 308 950 317 932 l 301 968 l 500 968 q 469 824 469 914 l 469 189 q 478 94 469 135 q 494 42 486 54 l 503 28 l 303 51 z "},"i":{"ha":256,"x_min":28,"x_max":228,"o":"m 196 779 l 186 226 q 194 160 186 194 q 211 107 203 125 l 218 89 l 42 67 q 72 233 72 143 l 63 786 l 61 786 q 53 852 61 818 q 36 904 44 886 l 28 922 l 228 922 q 197 779 197 869 l 196 779 z "},"j":{"ha":461,"x_min":26,"x_max":432,"o":"m 407 833 l 407 483 q 408 436 407 478 q 408 369 408 394 q 405 294 408 343 q 394 213 401 246 q 372 139 386 179 q 335 74 357 99 q 281 33 314 50 q 206 15 247 15 q 115 40 153 15 q 60 102 78 64 q 34 188 42 140 q 28 280 26 236 q 39 364 31 324 l 38 364 q 45 405 43 386 q 47 431 47 424 l 47 439 l 81 424 l 156 389 l 171 382 q 136 342 151 372 q 122 254 125 301 q 123 164 118 207 q 147 92 128 121 q 199 64 167 64 q 244 89 226 64 q 267 178 261 114 q 274 281 274 242 q 275 417 275 319 q 275 478 275 457 l 275 922 q 183 894 229 918 q 113 847 136 869 l 89 826 l 89 974 l 432 974 q 407 833 407 940 z "},"k":{"ha":547,"x_min":29,"x_max":519,"o":"m 439 206 q 475 144 456 171 q 506 108 494 118 l 517 100 l 360 100 q 366 110 363 103 q 373 144 369 118 q 363 201 376 169 q 236 549 333 292 q 216 519 229 538 q 199 494 203 501 l 199 236 q 206 170 199 204 q 222 118 214 136 l 231 100 l 31 100 q 61 243 61 153 l 61 785 q 53 852 61 818 q 36 904 44 886 l 29 922 l 229 922 q 199 778 199 869 l 199 585 q 349 803 315 744 q 374 869 368 839 q 378 911 381 899 l 374 922 l 519 922 q 450 850 490 906 q 414 801 439 836 q 347 705 389 765 q 276 606 304 644 q 439 206 393 301 z "},"l":{"ha":440,"x_min":28,"x_max":413,"o":"m 413 215 q 392 149 397 196 q 389 67 386 103 l 390 29 q 213 49 293 50 q 81 36 132 47 l 31 25 q 61 168 61 78 l 61 832 q 53 899 61 864 q 36 951 44 933 l 28 969 l 228 969 q 197 825 197 915 l 197 101 q 265 105 236 106 q 311 100 294 104 l 328 97 q 348 164 336 136 q 367 200 360 192 l 374 208 l 413 215 z "},"m":{"ha":568,"x_min":29,"x_max":539,"o":"m 340 100 q 371 243 371 153 l 371 749 q 306 411 321 474 q 301 366 300 385 q 308 336 303 347 l 313 325 l 185 325 q 182 417 199 363 q 106 650 181 419 l 106 268 q 110 205 106 231 q 117 172 114 179 l 121 164 l 29 164 q 51 267 51 186 l 51 640 q 46 771 51 708 q 35 863 40 833 l 29 892 l 206 892 q 201 872 203 885 q 196 820 199 858 q 204 753 193 782 q 272 514 228 674 q 318 736 304 683 l 326 769 q 336 813 335 801 q 342 853 338 825 q 344 908 346 882 q 338 960 343 933 l 538 960 q 507 815 507 907 l 507 236 q 515 170 507 204 q 531 118 524 136 l 539 100 l 340 100 z "},"n":{"ha":432,"x_min":29,"x_max":403,"o":"m 381 708 l 381 200 q 385 144 381 169 q 393 110 389 119 l 397 100 l 264 100 q 261 190 279 138 q 114 674 249 231 l 114 300 q 118 236 114 263 q 126 203 122 210 l 131 194 l 29 194 q 51 297 51 217 l 51 671 q 46 802 51 739 q 35 894 40 865 l 29 922 l 214 922 q 209 902 211 915 q 204 851 207 889 q 213 783 201 813 q 236 699 218 764 q 278 549 254 635 q 318 408 303 463 l 318 708 l 318 922 l 318 925 q 314 988 318 963 q 306 1022 310 1014 l 301 1029 l 403 1029 q 381 926 381 1007 l 381 919 l 381 708 z "},"o":{"ha":504,"x_min":28,"x_max":476,"o":"m 93 865 q 126 938 93 865 q 251 1010 158 1010 q 410 865 344 1010 q 476 515 476 721 q 410 165 476 310 q 251 19 344 19 q 93 165 158 19 q 28 515 28 310 q 93 865 28 721 m 195 198 q 207 132 195 198 q 251 67 218 67 q 308 198 285 67 q 332 515 332 329 q 308 831 332 700 q 251 963 285 963 q 195 832 218 963 q 172 515 172 701 q 195 198 172 329 z "},"p":{"ha":507,"x_min":29,"x_max":492,"o":"m 29 922 q 404 867 281 988 q 475 643 492 781 q 360 431 460 511 q 197 368 290 376 l 197 164 q 206 98 197 132 q 222 46 214 64 l 231 28 l 31 28 q 61 172 61 81 l 61 785 q 53 852 61 818 q 36 904 44 886 l 29 922 m 197 860 l 197 778 l 197 415 q 291 478 251 426 q 342 598 331 531 q 345 732 353 665 q 299 847 338 799 q 197 901 260 896 l 197 860 z "},"q":{"ha":504,"x_min":28,"x_max":476,"o":"m 476 515 q 431 218 476 349 q 317 40 386 88 q 454 53 388 43 l 415 -93 q 411 -83 414 -89 q 395 -62 408 -78 q 365 -35 382 -47 q 318 -14 349 -24 q 251 -4 288 -4 q 154 -26 194 -4 q 101 -71 114 -49 l 89 -93 l 50 53 q 186 42 107 46 q 72 219 117 89 q 28 515 28 350 q 93 865 28 721 q 251 1010 158 1010 q 410 865 344 1010 q 476 515 476 721 m 308 831 q 297 897 308 831 q 251 963 285 963 q 195 832 218 963 q 172 515 172 701 q 195 198 172 329 q 251 67 218 67 q 308 198 285 67 q 332 515 332 329 q 308 831 332 700 z "},"r":{"ha":574,"x_min":28,"x_max":546,"o":"m 296 457 q 387 380 354 432 q 431 272 419 328 q 451 163 442 215 q 481 76 460 110 q 546 42 503 42 l 546 -6 q 399 25 454 -6 q 329 101 344 56 q 306 201 314 146 q 296 303 297 256 q 270 388 294 351 q 197 431 246 424 l 197 236 q 206 170 197 204 q 222 118 214 136 l 229 100 l 31 100 q 61 243 61 153 l 61 785 q 53 852 61 818 q 36 904 44 886 l 28 922 q 407 878 283 989 q 474 679 492 801 q 357 490 458 561 q 296 457 329 469 m 197 860 l 197 778 l 197 481 q 291 536 251 490 q 342 642 331 582 q 346 760 353 701 q 299 859 339 818 q 197 903 260 900 l 197 860 z "},"s":{"ha":396,"x_min":28,"x_max":368,"o":"m 161 854 q 265 555 161 794 q 368 232 368 315 q 321 109 368 151 q 201 67 274 67 q 39 247 46 67 q 36 273 39 261 q 31 289 33 285 l 28 294 l 101 294 l 136 294 q 126 249 126 282 q 204 117 126 117 q 245 133 231 117 q 260 175 260 149 q 205 347 260 222 q 96 603 150 471 q 42 799 42 735 q 85 921 42 872 q 208 969 128 969 q 281 953 251 969 q 324 908 311 936 q 340 855 336 881 q 343 801 344 829 l 350 756 l 339 756 l 281 756 l 264 756 l 254 756 q 267 794 265 768 q 213 922 274 922 q 175 903 189 922 q 161 854 161 885 z "},"t":{"ha":518,"x_min":29,"x_max":489,"o":"m 29 1049 q 259 1036 81 1036 q 489 1049 438 1036 l 489 928 l 460 917 l 419 988 q 328 979 382 982 l 328 156 q 336 89 328 124 q 353 36 344 54 l 360 18 l 161 18 q 192 163 192 71 l 192 978 q 99 988 139 981 l 58 917 l 29 928 l 29 1049 z "},"u":{"ha":526,"x_min":29,"x_max":497,"o":"m 497 50 l 299 50 q 328 181 325 97 q 181 75 269 75 q 132 83 153 75 q 99 111 111 92 q 78 150 86 131 q 66 205 69 169 q 62 267 63 240 q 61 340 61 294 l 61 867 q 53 933 61 899 q 36 985 44 967 l 29 1003 l 228 1003 q 197 860 197 950 l 197 340 q 198 281 197 301 q 203 231 199 260 q 218 190 207 203 q 246 178 229 178 q 329 258 285 178 l 329 807 q 321 874 329 839 q 304 926 313 908 l 296 944 l 496 944 q 465 800 465 890 l 465 186 q 474 120 465 154 q 489 68 482 86 l 497 50 z "},"v":{"ha":554,"x_min":29,"x_max":525,"o":"m 365 204 q 363 143 360 167 q 372 108 365 119 l 378 99 l 349 99 l 203 99 l 178 99 q 183 107 181 101 q 190 139 186 113 q 183 206 193 165 l 71 822 q 56 877 67 850 q 38 917 46 904 l 29 931 l 236 931 q 231 919 233 926 q 224 889 228 913 q 221 839 219 865 l 301 267 l 397 869 q 398 925 400 901 q 393 961 396 949 l 390 975 l 525 975 q 465 850 481 925 l 365 204 z "},"w":{"ha":838,"x_min":28,"x_max":810,"o":"m 649 204 q 647 143 644 167 q 656 108 650 119 l 661 99 l 632 99 l 488 99 l 463 99 q 467 107 465 101 q 473 139 469 113 q 468 206 476 165 l 413 513 l 364 204 q 363 143 360 167 q 371 108 365 119 l 376 99 l 347 99 l 203 99 l 176 99 q 182 107 179 101 q 188 139 185 113 q 183 206 192 165 l 71 822 q 56 877 67 850 q 36 917 44 904 l 28 931 l 235 931 q 230 919 233 926 q 222 889 226 913 q 219 839 218 865 l 300 267 l 368 693 q 370 752 372 728 q 363 789 368 776 l 357 803 l 549 803 q 542 792 546 799 q 534 760 539 785 q 531 710 529 736 l 585 267 l 681 869 q 682 925 683 901 q 678 961 681 949 l 675 975 l 810 975 q 749 850 765 925 l 649 204 z "},"x":{"ha":565,"x_min":28,"x_max":538,"o":"m 475 129 q 499 75 485 99 q 524 43 514 51 l 533 35 l 371 35 q 371 126 393 72 l 261 410 l 161 190 q 149 142 150 165 q 151 108 147 119 l 156 99 l 28 99 q 90 193 61 122 l 226 497 l 94 836 q 68 889 83 865 q 43 922 53 913 l 33 931 l 247 931 q 242 919 244 926 q 237 888 240 913 q 243 839 233 864 l 301 663 l 400 883 l 400 883 l 404 892 q 411 934 413 915 q 404 964 410 953 l 399 975 l 538 975 q 476 882 508 942 l 332 567 l 475 129 z "},"y":{"ha":564,"x_min":28,"x_max":535,"o":"m 486 853 l 339 475 l 339 236 q 347 169 339 203 q 364 117 356 135 l 371 99 l 171 99 q 201 243 201 151 l 201 475 l 78 813 l 28 921 l 235 921 q 229 911 232 918 q 223 881 226 904 q 228 829 219 857 l 306 579 l 404 828 l 403 828 q 416 880 415 857 q 411 911 417 903 l 407 921 l 535 921 q 486 853 513 906 z "},"z":{"ha":471,"x_min":29,"x_max":443,"o":"m 401 235 l 439 242 q 418 175 424 222 q 414 92 413 128 l 417 54 q 232 74 318 75 q 88 61 146 72 l 29 50 l 289 893 q 204 886 247 886 q 139 889 161 886 l 117 893 q 97 826 108 854 q 78 790 85 799 l 71 782 l 32 775 q 53 842 47 794 q 56 925 58 889 l 54 963 q 240 943 153 942 q 385 956 326 944 l 443 967 l 190 125 q 273 131 236 131 q 332 128 310 131 l 354 124 q 374 190 363 163 q 394 226 386 218 l 401 235 z "},"{":{"ha":494,"x_min":29,"x_max":465,"o":"m 339 826 q 326 699 339 757 q 296 606 314 640 q 260 549 278 572 q 231 517 243 525 l 218 507 q 231 498 224 504 q 260 466 239 492 q 297 408 281 440 q 326 316 313 375 q 339 188 339 257 q 364 3 339 44 q 465 -39 389 -39 l 465 -99 q 233 -42 296 -99 q 169 192 169 15 q 155 311 169 256 q 120 401 140 367 q 79 460 100 435 q 44 497 58 486 l 29 507 q 44 518 35 511 q 78 553 54 525 q 121 613 103 581 q 154 702 139 646 q 169 822 169 758 q 233 1056 169 999 q 465 1113 296 1113 l 465 1053 q 364 1012 389 1053 q 339 826 339 971 z "},"|":{"ha":183,"x_min":29,"x_max":154,"o":"m 126 75 q 133 -1 126 31 q 147 -43 140 -33 l 154 -53 l 29 -53 q 49 76 49 -28 l 49 932 q 44 1010 49 978 q 33 1053 39 1043 l 29 1061 l 154 1061 q 126 935 126 1035 l 126 75 z "},"}":{"ha":494,"x_min":29,"x_max":465,"o":"m 156 826 q 131 1012 156 971 q 29 1053 106 1053 l 29 1113 q 262 1056 199 1113 q 325 822 325 999 q 340 703 325 758 q 374 613 354 647 q 415 553 394 579 q 450 517 436 528 l 465 507 q 450 496 460 503 q 416 461 440 489 q 374 401 392 433 q 340 312 356 368 q 325 192 325 256 q 262 -42 325 15 q 29 -99 199 -99 l 29 -39 q 131 3 106 -39 q 156 188 156 44 q 168 315 156 257 q 199 408 181 374 q 234 465 217 442 q 264 497 251 489 l 276 507 q 263 516 271 510 q 235 548 256 522 q 198 606 214 574 q 169 698 182 639 q 156 826 156 757 z "},"~":{"ha":603,"x_min":28,"x_max":575,"o":"m 28 526 l 189 629 q 188 617 189 625 q 191 591 188 610 q 203 558 194 572 q 233 531 211 543 q 285 519 254 519 q 377 542 321 519 q 475 564 433 564 q 535 547 510 564 q 567 514 560 531 l 575 499 l 500 400 q 494 421 499 408 q 470 454 489 433 q 425 475 451 475 q 360 454 392 475 q 288 413 328 433 q 197 392 249 392 q 135 406 164 392 q 87 439 106 419 q 54 478 68 458 q 33 513 40 499 l 28 526 z "},"¡":{"ha":306,"x_min":29,"x_max":276,"o":"m 236 174 q 246 91 236 133 q 267 25 256 49 l 276 3 l 29 3 q 67 182 67 69 l 67 797 l 236 797 l 236 174 m 219 906 q 205 893 219 906 q 153 879 192 879 q 87 906 114 879 q 60 971 60 933 q 87 1037 60 1010 q 153 1064 114 1064 q 219 1037 192 1064 q 246 971 246 1010 q 219 906 246 933 z "},"¢":{"ha":453,"x_min":28,"x_max":425,"o":"m 425 111 q 314 44 388 60 q 319 -31 314 0 q 331 -69 325 -61 l 335 -79 l 208 -79 q 236 43 235 -53 q 121 125 169 57 q 51 287 72 193 q 28 490 29 381 q 49 697 28 600 q 117 868 71 793 q 228 967 164 943 q 223 1044 228 1013 q 214 1086 218 1076 l 208 1094 l 335 1094 q 307 975 308 1069 q 391 933 363 969 q 421 864 419 897 l 422 831 l 324 797 q 326 812 325 803 q 327 844 326 821 q 326 886 328 868 q 314 919 324 904 q 289 933 304 933 q 216 847 246 933 q 179 635 186 760 q 178 386 172 511 q 208 174 183 261 q 269 88 233 88 q 318 116 296 88 q 349 172 340 144 l 357 200 l 425 111 z "},"£":{"ha":647,"x_min":28,"x_max":619,"o":"m 468 107 q 551 116 514 107 q 604 133 589 125 l 619 143 l 590 -37 q 571 -19 585 -31 q 494 10 557 -8 q 347 28 432 28 l 274 28 q 165 -40 228 -40 q 77 3 103 -40 q 80 91 51 46 q 178 142 108 136 q 192 257 192 193 q 172 393 192 311 l 158 393 q 78 388 111 393 q 36 378 46 383 l 28 374 l 28 499 q 154 472 54 472 q 121 706 121 611 q 193 944 121 865 q 360 1022 265 1022 q 469 993 424 1022 q 531 922 514 964 q 557 838 549 881 q 564 767 565 796 l 563 738 q 501 752 528 756 q 461 736 475 749 l 446 722 q 447 736 446 728 q 447 769 447 744 q 444 815 446 793 q 438 865 443 838 q 425 911 433 892 q 402 944 417 931 q 369 957 388 957 q 272 681 272 957 q 306 472 272 628 q 378 479 349 472 q 417 492 408 486 l 426 499 l 426 374 q 321 393 406 390 q 335 263 335 314 q 313 125 335 186 q 468 107 418 107 z "},"¤":{"ha":492,"x_min":28,"x_max":464,"o":"m 372 588 q 375 443 414 518 q 425 403 403 418 q 456 385 447 388 l 464 382 l 375 293 q 319 388 375 326 q 181 386 249 349 q 138 334 154 357 q 119 303 122 311 l 117 293 l 28 382 q 124 440 61 382 q 118 578 83 507 q 67 620 90 604 q 36 639 44 636 l 28 640 l 117 729 q 172 636 117 696 q 315 642 240 681 q 356 691 340 669 q 372 721 371 713 l 375 729 l 464 640 q 372 588 432 640 m 167 513 q 167 496 167 513 q 190 456 167 479 q 248 432 214 432 q 306 456 282 432 q 329 513 329 479 q 306 571 329 547 q 248 594 282 594 q 190 571 214 594 q 167 513 167 547 z "},"¥":{"ha":689,"x_min":29,"x_max":660,"o":"m 500 1022 l 660 1022 q 599 939 631 1003 l 440 532 q 493 541 471 535 q 522 553 515 547 l 529 557 l 529 432 q 415 451 506 450 l 415 351 q 483 360 454 353 q 519 372 511 367 l 529 379 l 529 253 q 415 274 506 271 l 415 171 q 426 88 415 131 q 446 22 436 46 l 456 0 l 207 0 q 246 179 246 65 l 246 274 q 175 268 204 274 q 138 258 146 263 l 129 253 l 129 379 q 246 351 154 354 l 246 451 q 175 447 204 451 q 138 436 146 442 l 129 432 l 129 557 q 222 531 150 536 l 92 888 l 29 1022 l 286 1022 q 280 1010 283 1018 q 272 972 276 1001 q 278 908 267 943 l 374 599 l 497 907 l 496 907 q 513 972 511 943 q 507 1011 514 1000 l 500 1022 z "},"§":{"ha":567,"x_min":29,"x_max":538,"o":"m 332 907 q 435 608 332 847 q 538 285 538 368 q 490 162 538 204 q 371 119 443 119 l 364 119 q 306 31 350 61 q 201 0 261 0 q 119 18 153 0 q 70 66 86 36 q 47 124 54 96 q 40 181 40 151 q 38 206 40 194 q 32 222 35 218 l 29 228 l 103 228 l 136 228 q 126 182 128 214 q 204 50 131 50 q 246 67 231 50 q 261 108 261 83 q 206 280 261 156 q 97 536 151 404 q 42 732 42 668 q 85 854 42 806 q 210 903 129 903 l 218 903 q 379 1022 247 1022 q 469 991 436 1022 q 508 926 501 960 q 514 853 515 893 l 521 808 l 425 808 q 438 847 436 819 q 382 975 444 975 q 345 956 358 975 q 332 907 332 938 m 374 169 q 415 186 400 169 q 431 228 431 203 q 376 399 431 275 q 266 656 321 524 q 211 851 211 788 l 211 856 q 163 788 163 853 q 213 615 163 736 q 315 365 264 493 q 368 169 367 236 l 374 169 z "},"¨":{"ha":483,"x_min":28,"x_max":456,"o":"m 55 995 q 68 1009 55 995 q 121 1022 82 1022 q 187 995 160 1022 q 214 931 214 968 q 187 865 214 892 q 121 838 160 838 q 55 865 82 838 q 28 931 28 892 q 55 995 28 968 m 297 995 q 310 1009 297 995 q 363 1022 324 1022 q 428 995 401 1022 q 456 931 456 968 q 428 865 456 892 q 363 838 401 838 q 297 865 324 838 q 269 931 269 892 q 297 995 269 968 z "},"©":{"ha":1078,"x_min":29,"x_max":1049,"o":"m 178 950 q 253 1040 178 950 q 539 1131 328 1131 q 899 950 750 1131 q 1049 514 1049 769 q 899 78 1049 258 q 539 -101 750 -101 q 178 78 328 -101 q 29 514 29 258 q 178 950 29 769 m 302 120 q 351 39 302 120 q 539 -43 400 -43 q 776 120 678 -43 q 874 514 874 283 q 776 908 874 744 q 539 1071 678 1071 q 302 908 400 1071 q 204 514 204 744 q 302 120 204 283 m 544 125 q 588 150 568 125 q 614 200 607 175 l 622 225 l 683 146 q 667 128 678 139 q 622 100 657 118 q 546 82 586 82 q 438 128 485 82 q 366 249 390 175 q 331 412 342 322 q 334 592 321 501 q 373 756 347 682 q 448 876 399 829 q 560 922 497 922 q 647 890 617 922 q 681 825 678 857 l 682 792 l 593 761 q 594 768 593 764 q 596 785 594 772 q 597 809 597 797 q 596 835 597 821 q 591 859 594 849 q 580 876 588 869 q 563 883 572 883 q 472 694 499 883 q 468 315 446 504 q 544 125 490 125 z "},"ª":{"ha":333,"x_min":28,"x_max":306,"o":"m 196 585 q 199 590 197 586 q 203 607 200 594 q 206 633 206 619 l 200 713 l 121 713 l 100 638 q 94 603 94 619 q 97 578 94 586 l 100 571 l 28 571 q 63 639 50 600 l 175 1024 l 232 1014 l 283 642 q 292 616 286 628 q 301 600 297 604 l 306 596 l 196 585 m 128 736 l 197 736 l 182 935 l 128 736 z "},"«":{"ha":669,"x_min":29,"x_max":640,"o":"m 139 346 l 326 158 q 386 109 358 126 q 425 89 414 92 l 436 88 l 347 -1 q 269 104 344 31 l 29 346 l 269 588 q 322 647 303 621 q 344 683 342 674 l 347 694 l 436 606 q 326 535 399 606 l 139 346 m 343 346 l 531 158 q 590 109 563 126 q 629 89 618 92 l 640 88 l 551 -1 q 474 104 549 31 l 233 346 l 474 588 q 526 647 507 621 q 549 683 546 674 l 551 694 l 640 606 q 531 535 603 606 l 343 346 z "},"®":{"ha":1078,"x_min":29,"x_max":1049,"o":"m 178 950 q 253 1040 178 950 q 539 1131 328 1131 q 899 950 750 1131 q 1049 514 1049 769 q 899 78 1049 258 q 539 -101 750 -101 q 178 78 328 -101 q 29 514 29 258 q 178 950 29 769 m 769 110 q 874 514 874 275 q 776 908 874 744 q 539 1071 678 1071 q 302 908 400 1071 q 204 514 204 744 q 302 120 204 283 q 539 -43 400 -43 q 725 51 642 -43 q 644 113 671 69 q 613 206 618 157 q 605 303 608 256 q 581 386 601 351 q 515 428 561 421 l 515 254 q 523 194 515 225 q 538 147 531 164 l 544 131 l 365 131 q 393 260 393 179 l 393 746 q 385 806 393 775 q 371 853 378 836 l 364 868 q 708 824 600 931 q 763 639 783 750 q 643 471 740 529 q 603 450 624 458 q 685 381 654 429 q 724 286 715 333 q 743 186 732 239 q 769 110 754 133 m 515 474 q 599 523 564 482 q 645 617 635 564 q 649 723 656 671 q 606 812 642 775 q 515 851 571 849 l 515 813 l 515 739 l 515 474 z "},"°":{"ha":347,"x_min":29,"x_max":318,"o":"m 72 1040 q 93 1061 72 1040 q 174 1082 114 1082 q 276 1040 233 1082 q 318 938 318 997 q 276 835 318 878 q 174 793 233 793 q 72 835 114 793 q 29 938 29 878 q 72 1040 29 997 m 116 881 q 128 869 116 881 q 174 857 140 857 q 231 881 207 857 q 256 938 256 904 q 231 996 256 972 q 174 1019 207 1019 q 116 996 140 1019 q 92 938 92 972 q 116 881 92 904 z "},"²":{"ha":275,"x_min":28,"x_max":247,"o":"m 247 668 q 238 560 221 608 q 28 560 150 579 q 50 631 28 590 q 99 709 72 672 q 147 806 125 746 q 169 931 169 867 q 163 983 169 957 q 142 1008 156 1008 q 119 979 126 1008 q 124 931 111 950 l 53 908 q 52 922 53 914 q 54 952 51 931 q 65 990 57 974 q 94 1021 74 1007 q 146 1035 115 1035 q 242 922 242 1035 q 213 791 242 861 q 147 664 183 721 q 108 601 111 607 q 192 601 142 615 q 228 668 201 650 l 247 668 z "},"³":{"ha":264,"x_min":28,"x_max":242,"o":"m 156 815 q 221 765 200 804 q 235 685 242 726 q 199 612 229 644 q 122 579 168 579 q 50 613 72 579 q 28 693 28 646 l 88 693 q 86 643 79 682 q 122 604 93 604 q 165 652 151 604 q 158 747 178 700 q 86 794 139 794 l 86 826 q 144 872 125 826 q 156 962 163 917 q 126 1007 149 1007 q 104 970 110 1007 q 108 919 99 933 l 38 899 q 37 913 38 904 q 39 945 36 922 q 50 985 42 968 q 78 1017 58 1003 q 129 1032 99 1032 q 210 986 188 1032 q 215 888 233 940 q 156 815 197 835 z "},"´":{"ha":275,"x_min":28,"x_max":247,"o":"m 247 924 q 166 872 203 911 q 114 801 129 833 l 100 769 l 28 833 q 88 914 65 867 q 114 992 110 961 l 118 1024 l 247 924 z "},"·":{"ha":242,"x_min":28,"x_max":214,"o":"m 187 560 q 200 547 187 560 q 214 494 214 533 q 187 428 214 456 q 121 401 160 401 q 55 428 82 401 q 28 494 28 456 q 55 560 28 533 q 121 588 82 588 q 187 560 160 588 z "},"¸":{"ha":182,"x_min":-65,"x_max":211,"o":"m 119 6 q 196 -60 181 -1 q 161 -174 211 -122 q 31 -224 114 -224 q -20 -231 4 -224 q -56 -247 -44 -239 l -65 -254 q -36 -187 -46 -224 q -25 -131 -26 -151 l -25 -111 q 86 -100 60 -135 q 75 -53 104 -75 q 8 -35 51 -35 q 40 15 31 -15 q 50 64 50 44 l 49 85 l 154 85 q 119 6 126 64 z "},"¹":{"ha":206,"x_min":28,"x_max":178,"o":"m 72 546 q 89 621 89 574 l 89 983 q 72 944 78 965 q 64 910 65 922 l 63 897 l 28 924 q 57 986 46 953 q 69 1039 68 1019 l 71 1057 l 176 1057 q 160 981 160 1029 l 160 618 q 165 583 160 601 q 174 556 169 565 l 178 546 l 72 546 z "},"º":{"ha":292,"x_min":28,"x_max":264,"o":"m 63 960 q 80 992 63 960 q 146 1024 97 1024 q 229 960 194 1024 q 264 807 264 897 q 229 653 264 717 q 146 590 194 590 q 63 653 97 590 q 28 807 28 717 q 63 960 28 897 m 116 674 q 122 647 116 674 q 146 621 128 621 q 176 674 164 621 q 188 807 188 726 q 176 939 188 886 q 146 992 164 992 q 116 939 128 992 q 104 807 104 886 q 116 674 104 726 z "},"»":{"ha":669,"x_min":29,"x_max":640,"o":"m 343 158 l 531 346 l 343 535 q 283 584 311 567 q 244 603 256 601 l 233 606 l 322 694 q 400 588 325 663 l 640 346 q 400 104 406 111 q 347 44 367 71 q 325 8 328 18 l 322 -1 l 233 88 q 343 158 271 88 m 139 158 l 326 346 l 139 535 q 79 584 107 567 q 40 603 51 601 l 29 606 l 118 694 q 196 588 121 663 l 436 346 q 196 104 201 111 q 143 44 163 71 q 121 8 124 18 l 118 -1 l 29 88 q 139 158 67 88 z "},"¿":{"ha":550,"x_min":29,"x_max":524,"o":"m 370 916 q 357 902 370 916 q 304 889 343 889 q 239 916 265 889 q 213 982 213 943 q 239 1047 213 1019 q 304 1074 265 1074 q 370 1047 343 1074 q 397 982 397 1019 q 370 916 397 943 m 489 524 q 519 357 515 451 q 503 170 524 263 q 419 15 483 78 q 254 -49 354 -49 q 92 38 154 -49 q 29 254 29 125 q 50 388 29 326 q 101 493 71 449 q 163 583 132 538 q 214 691 193 628 q 235 831 235 754 l 367 831 q 348 679 367 746 q 303 566 329 613 q 251 473 278 519 q 206 358 225 426 q 188 200 188 289 q 204 79 188 138 q 254 21 221 21 q 321 80 292 21 q 357 231 350 139 q 342 431 364 322 q 350 430 344 431 q 372 432 356 429 q 404 443 388 435 q 444 472 421 451 q 489 524 468 493 z "},"ƒ":{"ha":467,"x_min":28,"x_max":439,"o":"m 28 897 q 52 892 36 894 q 116 883 68 889 q 211 874 164 876 q 322 875 258 871 q 439 892 385 879 l 439 771 l 408 760 l 368 831 q 339 828 357 829 q 267 824 321 826 q 176 829 213 822 q 193 511 193 713 q 264 526 243 513 q 285 581 285 540 l 325 581 l 325 483 l 325 386 l 285 386 q 264 439 285 425 q 193 456 243 453 q 174 122 193 246 l 35 100 q 57 486 57 157 q 50 736 57 633 q 36 868 43 839 l 28 897 z "},"ˆ":{"ha":619,"x_min":28,"x_max":592,"o":"m 432 790 l 310 913 l 188 790 q 138 731 156 758 q 119 692 121 704 l 117 681 l 28 769 q 135 847 60 772 l 310 1022 l 485 847 q 545 794 518 814 q 582 772 572 775 l 592 769 l 503 681 q 432 790 503 719 z "},"ˇ":{"ha":619,"x_min":28,"x_max":592,"o":"m 188 913 l 310 790 l 432 913 q 481 972 464 944 q 500 1011 499 999 l 503 1022 l 592 933 q 485 856 560 931 l 310 681 l 135 856 q 74 908 101 889 q 38 931 47 928 l 28 933 l 117 1022 q 188 913 117 983 z "},"˙":{"ha":242,"x_min":28,"x_max":214,"o":"m 214 931 q 187 865 214 892 q 121 838 160 838 q 55 865 82 838 q 28 931 28 892 q 55 995 28 968 q 121 1022 82 1022 q 187 995 160 1022 q 214 931 214 968 z "},"˚":{"ha":347,"x_min":29,"x_max":318,"o":"m 72 1040 q 93 1061 72 1040 q 174 1082 114 1082 q 276 1040 233 1082 q 318 938 318 997 q 276 835 318 878 q 174 793 233 793 q 72 835 114 793 q 29 938 29 878 q 72 1040 29 997 m 116 881 q 128 869 116 881 q 174 857 140 857 q 231 881 207 857 q 256 938 256 904 q 231 996 256 972 q 174 1019 207 1019 q 116 996 140 1019 q 92 938 92 972 q 116 881 92 904 z "},"˛":{"ha":211,"x_min":-40,"x_max":251,"o":"m 153 78 l 153 19 q 106 -11 124 19 q 97 -72 89 -42 q 142 -103 106 -103 q 200 -93 174 -103 q 236 -74 226 -83 l 247 -64 q 251 -199 229 -151 q 125 -228 199 -228 q -7 -151 26 -228 q 8 1 -40 -75 q 153 78 56 78 z "},"˜":{"ha":492,"x_min":29,"x_max":463,"o":"m 29 975 l 157 1057 q 156 1047 157 1053 q 158 1027 156 1042 q 168 1001 161 1013 q 192 980 175 989 q 233 971 208 971 q 306 988 261 971 q 385 1006 351 1006 q 432 992 413 1006 q 457 967 451 979 l 463 953 l 404 875 q 399 892 403 882 q 381 918 396 901 q 344 935 365 935 q 265 901 315 935 q 163 868 215 868 q 88 895 121 868 q 42 949 54 922 l 29 975 z "},"–":{"ha":508,"x_min":29,"x_max":479,"o":"m 351 529 q 428 536 396 529 q 469 550 460 543 l 479 557 l 479 432 q 349 451 454 451 l 160 451 q 80 447 113 451 q 39 436 47 442 l 29 432 l 29 557 q 157 529 56 529 l 351 529 z "},"—":{"ha":558,"x_min":28,"x_max":531,"o":"m 403 529 q 479 536 447 529 q 521 550 511 543 l 531 557 l 531 432 q 400 451 504 451 l 158 451 q 80 447 113 451 q 38 436 47 442 l 28 432 l 28 557 q 156 529 56 529 l 403 529 z "},"‘":{"ha":283,"x_min":11,"x_max":256,"o":"m 126 753 q 34 821 57 753 q 48 956 11 889 q 160 1024 85 1024 q 220 1008 196 1024 q 250 978 244 993 l 256 963 q 189 904 197 963 q 215 842 215 881 q 189 778 215 804 q 126 753 163 753 z "},"’":{"ha":283,"x_min":28,"x_max":272,"o":"m 157 1024 q 249 956 226 1024 q 235 821 272 889 q 124 753 199 753 q 63 768 88 753 q 33 797 39 783 l 28 813 q 94 872 86 813 q 68 935 68 896 q 94 997 68 971 q 157 1024 121 1024 z "},"‚":{"ha":283,"x_min":28,"x_max":272,"o":"m 157 136 q 249 68 226 136 q 235 -68 272 0 q 124 -136 199 -136 q 63 -121 88 -136 q 33 -90 39 -106 l 28 -75 q 94 -17 86 -75 q 68 47 68 10 q 94 110 68 83 q 157 136 121 136 z "},"“":{"ha":525,"x_min":13,"x_max":496,"o":"m 367 753 q 275 821 297 753 q 290 956 253 889 q 401 1024 326 1024 q 461 1008 438 1024 q 490 978 485 993 l 496 963 q 429 904 440 963 q 456 842 456 881 q 430 778 456 804 q 367 753 404 753 m 128 753 q 35 821 58 753 q 49 956 13 889 q 161 1024 86 1024 q 221 1008 197 1024 q 250 978 244 993 l 257 963 q 189 904 200 963 q 217 842 217 879 q 190 778 217 804 q 128 753 164 753 z "},"”":{"ha":525,"x_min":29,"x_max":513,"o":"m 158 1024 q 250 956 228 1024 q 235 821 272 889 q 124 753 199 753 q 64 768 88 753 q 35 797 40 783 l 29 813 q 96 872 85 813 q 69 935 69 896 q 95 997 69 971 q 158 1024 121 1024 m 397 1024 q 490 956 467 1024 q 476 821 513 889 q 364 753 439 753 q 304 768 328 753 q 275 797 281 783 l 268 813 q 336 872 325 813 q 308 935 308 897 q 335 997 308 971 q 397 1024 361 1024 z "},"„":{"ha":528,"x_min":28,"x_max":515,"o":"m 157 136 q 249 68 226 136 q 235 -68 272 0 q 124 -136 199 -136 q 63 -121 88 -136 q 33 -90 39 -106 l 28 -75 q 94 -17 86 -75 q 68 47 68 10 q 94 110 68 83 q 157 136 121 136 m 400 136 q 492 68 469 136 q 478 -68 515 0 q 367 -136 442 -136 q 307 -121 331 -136 q 278 -90 283 -106 l 272 -75 q 339 -17 328 -75 q 313 47 313 10 q 338 110 313 83 q 400 136 364 136 z "},"†":{"ha":456,"x_min":28,"x_max":428,"o":"m 300 858 q 376 865 344 858 q 418 879 408 872 l 428 886 l 428 760 q 297 781 401 781 l 263 781 l 263 128 q 269 51 263 83 q 283 10 276 19 l 290 0 l 165 0 q 185 131 185 25 l 185 781 l 158 781 q 80 775 113 781 q 38 764 47 769 l 28 760 l 28 886 q 156 858 56 858 l 185 858 l 185 893 q 180 972 185 939 q 169 1014 175 1004 l 165 1022 l 290 1022 q 263 894 263 996 l 263 858 l 300 858 z "},"•":{"ha":331,"x_min":28,"x_max":303,"o":"m 263 592 q 283 572 263 592 q 303 494 303 551 q 263 397 303 438 q 165 357 222 357 q 68 397 108 357 q 28 494 28 438 q 68 592 28 551 q 165 632 108 632 q 263 592 222 632 z "},"…":{"ha":892,"x_min":29,"x_max":864,"o":"m 214 93 q 187 27 214 54 q 121 0 160 0 q 56 27 83 0 q 29 93 29 54 q 56 158 29 131 q 121 185 83 185 q 187 158 160 185 q 214 93 214 131 m 539 93 q 512 27 539 54 q 446 0 485 0 q 381 27 408 0 q 354 93 354 54 q 381 158 354 131 q 446 185 408 185 q 512 158 485 185 q 539 93 539 131 m 864 93 q 837 27 864 54 q 771 0 810 0 q 706 27 733 0 q 679 93 679 54 q 706 158 679 131 q 771 185 733 185 q 837 158 810 185 q 864 93 864 131 z "},"‹":{"ha":464,"x_min":28,"x_max":436,"o":"m 139 346 l 326 158 q 385 109 358 126 q 425 89 413 92 l 436 88 l 347 -1 q 269 104 343 31 l 28 346 l 269 588 q 322 647 303 621 q 344 683 342 674 l 347 694 l 436 606 q 326 535 397 606 l 139 346 z "},"›":{"ha":464,"x_min":28,"x_max":436,"o":"m 138 158 l 325 346 l 138 535 q 78 584 106 567 q 39 603 51 601 l 28 606 l 117 694 q 194 588 121 663 l 436 346 l 194 104 q 142 44 161 71 q 119 8 122 18 l 117 -1 l 28 88 q 138 158 67 88 z "},"€":{"ha":639,"x_min":28,"x_max":611,"o":"m 526 126 l 611 15 q 590 -9 604 6 q 525 -48 575 -24 q 419 -72 475 -72 q 218 56 294 -72 q 124 378 142 183 q 66 372 90 376 q 35 363 42 367 l 28 358 l 28 483 q 118 457 49 464 q 119 556 117 489 q 65 549 88 554 q 35 540 42 544 l 28 536 l 28 663 q 126 635 50 640 q 231 962 150 832 q 439 1092 313 1092 q 525 1073 489 1092 q 576 1028 561 1054 q 600 975 592 1001 q 608 931 608 949 l 608 911 l 485 868 q 488 886 486 875 q 490 926 489 897 q 488 978 490 956 q 473 1019 485 1001 q 442 1038 461 1038 q 349 924 385 1038 q 304 635 314 810 q 378 642 347 635 q 417 656 408 649 l 426 663 l 426 536 q 300 556 403 556 l 300 456 q 376 463 344 456 q 417 476 407 469 l 426 483 l 426 358 q 303 378 403 378 q 341 98 311 210 q 417 -14 371 -14 q 478 21 450 -14 q 517 92 506 56 l 526 126 z "},"™":{"ha":569,"x_min":29,"x_max":540,"o":"m 272 1078 l 272 1014 l 256 1008 l 235 1046 q 186 1040 215 1043 l 186 607 q 190 572 186 590 q 200 544 194 554 l 204 535 l 99 535 q 115 611 115 563 l 115 1040 q 65 1046 82 1043 l 44 1008 l 29 1014 l 29 1078 q 150 1072 56 1072 q 272 1078 244 1072 m 436 578 q 451 653 451 606 l 451 919 q 418 742 429 792 q 416 718 415 728 q 419 703 417 708 l 421 696 l 354 696 q 353 744 361 717 q 313 868 340 782 l 313 667 q 315 633 313 647 q 319 615 317 619 l 321 611 l 272 611 q 283 665 283 622 l 283 863 q 281 931 283 899 q 275 979 278 964 l 272 994 l 365 994 q 363 984 364 990 q 360 958 361 978 q 364 922 358 938 q 382 858 368 907 q 400 796 396 810 q 424 913 417 885 q 435 1031 442 989 l 539 1031 q 524 954 524 1003 l 524 650 q 528 615 524 633 q 536 588 532 597 l 540 578 l 436 578 z "},"":{"ha":4650,"x_min":129,"x_max":4621,"o":"m 3761 1075 q 3724 1072 3747 1074 q 3634 1067 3701 1069 q 3522 1074 3567 1065 q 3543 542 3540 939 q 3630 562 3604 544 q 3656 629 3656 579 l 3706 629 l 3706 386 l 3656 386 q 3630 453 3656 436 q 3543 474 3604 471 q 3524 -103 3540 35 q 3633 -94 3585 -94 q 3711 -100 3682 -94 l 3742 -104 q 3767 -21 3753 -56 q 3792 25 3782 14 l 3800 35 l 3847 43 q 3822 -40 3829 18 q 3818 -143 3815 -97 l 3821 -189 q 3591 -165 3699 -164 q 3411 -181 3483 -167 l 3338 -194 q 3348 -149 3342 -183 q 3364 64 3354 -115 q 3374 511 3374 243 q 3365 916 3374 754 q 3347 1118 3356 1078 l 3338 1158 q 3368 1151 3349 1156 q 3447 1140 3388 1147 q 3565 1128 3507 1132 q 3702 1130 3624 1125 q 3847 1151 3781 1135 l 3847 1000 l 3811 988 l 3761 1075 m 471 -61 q 508 118 508 6 l 508 447 l 339 447 l 339 -8 q 349 -91 339 -49 q 369 -156 358 -133 l 379 -179 l 132 -179 q 169 0 169 -112 l 169 981 q 160 1063 169 1021 q 139 1128 150 1106 l 129 1151 l 376 1151 q 339 972 339 1085 l 339 504 l 508 504 l 508 908 q 499 991 508 949 q 478 1056 489 1033 l 468 1078 l 715 1078 q 678 899 678 1013 l 678 110 q 688 -8 678 42 q 708 -72 697 -57 l 718 -89 l 471 -61 m 1819 -12 q 1793 -95 1800 -37 q 1789 -199 1786 -153 l 1792 -244 q 1572 -221 1671 -219 q 1408 -236 1472 -222 l 1344 -250 q 1383 -71 1383 -185 l 1383 914 q 1373 997 1383 954 q 1353 1061 1363 1039 l 1342 1085 l 1590 1085 q 1553 906 1553 1018 l 1553 -154 q 1638 -151 1601 -150 q 1694 -156 1674 -151 l 1714 -160 q 1740 -78 1725 -112 q 1764 -32 1754 -43 l 1772 -21 l 1819 -12 m 4349 194 l 4247 194 q 4269 297 4269 217 l 4269 671 q 4264 802 4269 739 q 4253 894 4258 865 l 4247 922 l 4432 922 q 4427 902 4429 915 q 4422 851 4425 889 q 4431 783 4419 813 q 4454 701 4436 764 q 4497 549 4472 638 q 4536 408 4521 461 l 4536 925 q 4532 988 4536 963 q 4524 1022 4528 1014 l 4519 1029 l 4621 1029 q 4599 926 4599 1007 l 4599 200 q 4603 144 4599 169 q 4611 110 4607 119 l 4615 100 l 4482 100 q 4479 190 4497 138 q 4332 674 4467 231 l 4332 300 q 4336 236 4332 263 q 4344 203 4340 210 l 4349 194 m 2144 865 q 2177 938 2144 865 q 2303 1010 2210 1010 q 2462 865 2396 1010 q 2528 515 2528 721 q 2462 165 2528 310 q 2303 19 2396 19 q 2144 165 2210 19 q 2079 515 2079 310 q 2144 865 2079 721 m 3144 204 q 3143 143 3140 167 q 3151 108 3146 119 l 3157 99 l 2958 99 q 2963 107 2961 101 q 2969 139 2965 113 q 2964 206 2972 165 l 2908 513 l 2860 204 q 2858 143 2856 167 q 2867 108 2861 119 l 2872 99 l 2672 99 q 2678 107 2675 101 q 2684 139 2681 113 q 2679 206 2688 165 l 2567 822 q 2551 877 2563 850 q 2532 917 2540 904 l 2524 931 l 2731 931 q 2726 919 2729 926 q 2718 889 2722 913 q 2715 839 2714 865 l 2796 267 l 2864 693 q 2866 752 2868 728 q 2858 789 2864 776 l 2853 803 l 3044 803 q 3038 792 3042 799 q 3030 760 3035 785 q 3026 710 3025 736 l 3081 267 l 3176 869 q 3178 925 3179 901 q 3174 961 3176 949 l 3171 975 l 3306 975 q 3244 850 3261 925 l 3144 204 m 2060 215 q 2039 149 2044 196 q 2036 67 2033 103 l 2038 29 q 1860 49 1940 50 q 1728 36 1779 47 l 1678 25 q 1708 168 1708 78 l 1708 832 q 1700 899 1708 864 q 1683 951 1692 933 l 1675 969 l 1875 969 q 1844 825 1844 915 l 1844 101 q 1913 105 1883 106 q 1958 100 1942 104 l 1975 97 q 1995 164 1983 136 q 2014 200 2007 192 l 2021 208 l 2060 215 m 2303 67 q 2360 198 2336 67 q 2383 515 2383 329 q 2360 831 2383 700 q 2303 963 2336 963 q 2247 831 2271 963 q 2224 515 2224 700 q 2247 199 2224 331 q 2303 67 2271 67 m 1300 113 l 1093 90 q 1099 101 1096 94 q 1108 133 1103 108 q 1111 183 1113 157 l 1100 333 l 950 333 l 910 190 q 901 126 901 157 q 906 81 901 94 l 910 65 l 775 65 q 840 193 817 118 l 1054 924 l 1163 906 l 1260 200 q 1274 151 1264 172 q 1292 121 1285 129 l 1300 113 m 4119 856 q 4090 853 4108 854 q 4018 849 4072 851 q 3928 854 3964 847 q 3944 536 3944 740 q 4015 553 3994 539 q 4036 606 4036 567 l 4076 606 l 4076 411 l 4036 411 q 4015 465 4036 451 q 3944 481 3994 479 q 3929 174 3944 301 q 4016 181 3972 181 q 4083 178 4060 181 l 4106 174 q 4126 240 4114 213 q 4144 276 4138 268 l 4153 285 l 4190 292 q 4169 225 4175 272 q 4167 142 4164 178 l 4168 104 q 3983 124 4069 125 q 3838 111 3896 124 l 3779 100 q 3808 511 3808 182 q 3801 761 3808 658 q 3786 894 3794 864 l 3779 924 q 3803 918 3788 921 q 3867 908 3819 915 q 3963 899 3915 901 q 4073 901 4010 897 q 4190 918 4136 904 l 4190 796 l 4160 785 l 4119 856 m 963 379 l 1096 379 l 1067 754 l 963 379 z "},"":{"ha":2928,"x_min":28,"x_max":2899,"o":"m 193 939 q 257 722 193 875 q 385 409 321 569 q 449 165 449 249 q 390 13 449 65 q 242 -40 332 -40 q 156 -24 193 -40 q 99 15 119 -8 q 65 69 78 38 q 47 128 51 101 q 42 183 42 156 q 38 216 42 201 q 31 236 35 231 l 28 243 l 161 243 q 150 185 150 225 q 246 21 150 21 q 298 41 279 21 q 317 94 317 61 q 249 308 317 153 q 112 626 181 463 q 43 869 43 789 q 97 1022 43 961 q 251 1082 151 1082 q 342 1061 306 1082 q 394 1006 379 1040 q 415 939 410 971 q 419 872 421 907 l 428 815 l 308 815 q 325 864 322 831 q 256 1022 332 1022 q 210 999 226 1022 q 193 939 193 976 m 468 1033 q 922 975 768 1113 q 1025 718 1031 878 q 915 454 1019 564 q 678 344 819 356 l 678 90 q 688 8 678 50 q 708 -57 697 -35 l 718 -79 l 469 -79 q 508 100 508 -14 l 508 863 q 499 945 508 903 q 478 1011 489 988 l 468 1033 m 2322 132 q 2367 55 2343 88 q 2406 11 2392 22 l 2418 0 l 2224 0 q 2231 13 2228 4 q 2239 54 2235 22 q 2226 126 2243 86 q 2069 558 2163 317 q 2047 525 2063 549 q 2022 490 2031 501 l 2022 169 q 2032 87 2022 129 q 2053 22 2042 44 l 2063 0 l 1814 0 q 1853 179 1853 65 l 1853 851 q 1843 934 1853 892 q 1822 1000 1833 976 l 1813 1022 l 2060 1022 q 2022 843 2022 957 l 2022 603 q 2208 874 2167 799 q 2241 956 2233 918 q 2244 1008 2249 993 l 2240 1022 l 2421 1022 q 2335 933 2385 1001 q 2119 629 2289 868 q 2322 132 2292 196 m 1281 1010 q 1435 875 1375 1010 q 1588 1010 1493 1010 q 1697 951 1650 1010 q 1768 807 1744 893 q 1802 646 1792 721 q 1813 515 1813 571 q 1802 384 1813 460 q 1768 222 1792 308 q 1697 78 1744 136 q 1588 19 1650 19 q 1435 154 1493 19 q 1281 19 1374 19 q 1172 78 1218 19 q 1101 222 1125 136 q 1067 384 1078 308 q 1057 515 1057 460 q 1067 646 1057 571 q 1101 807 1078 721 q 1172 951 1125 893 q 1281 1010 1218 1010 m 678 1007 l 678 403 q 778 463 735 414 q 843 576 821 511 q 867 714 865 640 q 851 850 869 788 q 787 957 832 913 q 678 1007 742 1001 m 1281 67 q 1322 128 1304 67 q 1347 275 1340 189 q 1358 422 1354 361 q 1361 515 1361 483 q 1358 608 1361 547 q 1347 755 1354 669 q 1322 901 1340 840 q 1281 963 1304 963 q 1238 902 1256 963 q 1213 755 1221 842 q 1203 608 1206 668 q 1200 515 1200 549 q 1203 422 1200 482 q 1213 274 1206 361 q 1238 127 1221 188 q 1281 67 1256 67 m 1588 67 q 1630 127 1613 67 q 1655 274 1647 188 q 1665 422 1663 361 q 1668 515 1668 482 q 1665 608 1668 549 q 1655 755 1663 668 q 1630 902 1647 842 q 1588 963 1613 963 q 1547 902 1564 963 q 1522 755 1529 842 q 1511 608 1514 668 q 1508 515 1508 549 q 1511 422 1508 482 q 1522 274 1514 361 q 1547 127 1529 188 q 1588 67 1564 67 m 2850 853 l 2703 475 l 2703 236 q 2711 169 2703 203 q 2728 117 2719 135 l 2735 99 l 2535 99 q 2565 243 2565 151 l 2565 475 l 2442 813 l 2392 921 l 2599 921 q 2593 911 2596 918 q 2587 881 2590 904 q 2592 829 2583 857 l 2669 579 l 2768 828 l 2767 828 q 2780 880 2779 857 q 2775 911 2781 903 l 2771 921 l 2899 921 q 2850 853 2876 906 z "}}}
